<svg xmlns="http://www.w3.org/2000/svg" xmlns:xlink="http://www.w3.org/1999/xlink" width="123" zoomAndPan="magnify" viewBox="0 0 92.25 142.499995" height="190" preserveAspectRatio="xMidYMid meet" version="1.0"><defs><g/><clipPath id="8686cf08a3"><path d="M 1 6 L 2.613281 6 L 2.613281 8 L 1 8 Z M 1 6 " clip-rule="nonzero"/></clipPath><clipPath id="82c977536a"><rect x="0" width="3" y="0" height="10"/></clipPath><clipPath id="b838e2f146"><path d="M 17 17 L 74 17 L 74 140.933594 L 17 140.933594 Z M 17 17 " clip-rule="nonzero"/></clipPath><clipPath id="23ed3e1ffc"><path d="M 43 0.328125 L 48 0.328125 L 48 11 L 43 11 Z M 43 0.328125 " clip-rule="nonzero"/></clipPath><clipPath id="56949c47c1"><path d="M 80 43 L 90.761719 43 L 90.761719 48 L 80 48 Z M 80 43 " clip-rule="nonzero"/></clipPath></defs><g transform="matrix(1, 0, 0, 1, 30, 62)"><g clip-path="url(#82c977536a)"><g clip-path="url(#8686cf08a3)"><g fill="#000000" fill-opacity="1"><g transform="translate(0.762091, 7.42672)"><g><path d="M 0.859375 0.03125 C 0.734375 0.03125 0.632812 0 0.5625 -0.0625 C 0.5 -0.132812 0.46875 -0.226562 0.46875 -0.34375 C 0.46875 -0.445312 0.5 -0.535156 0.5625 -0.609375 C 0.632812 -0.679688 0.734375 -0.71875 0.859375 -0.71875 C 0.972656 -0.71875 1.066406 -0.679688 1.140625 -0.609375 C 1.210938 -0.546875 1.25 -0.457031 1.25 -0.34375 C 1.25 -0.226562 1.210938 -0.132812 1.140625 -0.0625 C 1.066406 0 0.972656 0.03125 0.859375 0.03125 Z M 0.859375 0.03125 "/></g></g></g></g></g></g><path fill="#ffe296" d="M 45.441406 62.667969 C 36.011719 62.667969 28.339844 54.996094 28.339844 45.566406 C 28.339844 36.136719 36.007812 28.464844 45.441406 28.464844 C 54.871094 28.464844 62.542969 36.136719 62.542969 45.566406 C 62.542969 54.996094 54.871094 62.667969 45.441406 62.667969 Z M 45.441406 32.917969 C 38.464844 32.917969 32.792969 38.589844 32.792969 45.566406 C 32.792969 52.539062 38.464844 58.214844 45.441406 58.214844 C 52.414062 58.214844 58.089844 52.539062 58.089844 45.566406 C 58.089844 38.589844 52.414062 32.917969 45.441406 32.917969 Z M 45.441406 32.917969 " fill-opacity="1" fill-rule="nonzero"/><g clip-path="url(#b838e2f146)"><path fill="#ffe296" d="M 53.269531 141.121094 L 37.613281 141.121094 L 37.613281 72.335938 C 25.882812 68.902344 17.546875 57.921875 17.546875 45.566406 C 17.546875 30.1875 30.058594 17.675781 45.441406 17.675781 C 60.816406 17.675781 73.328125 30.1875 73.328125 45.566406 C 73.328125 57.921875 64.992188 68.902344 53.269531 72.335938 L 53.269531 104 L 70.027344 104 L 70.027344 117.789062 L 61.652344 117.789062 L 61.652344 122.664062 L 70.027344 122.664062 L 70.027344 136.449219 L 53.269531 136.449219 Z M 42.066406 136.664062 L 48.816406 136.664062 L 48.816406 131.996094 L 65.574219 131.996094 L 65.574219 127.121094 L 57.195312 127.121094 L 57.195312 113.335938 L 65.574219 113.335938 L 65.574219 108.457031 L 48.816406 108.457031 L 48.816406 68.828125 L 50.558594 68.4375 C 61.171875 66.074219 68.875 56.457031 68.875 45.566406 C 68.875 32.644531 58.363281 22.128906 45.441406 22.128906 C 32.515625 22.128906 22 32.644531 22 45.566406 C 22 56.457031 29.707031 66.074219 40.324219 68.4375 L 42.066406 68.828125 Z M 42.066406 136.664062 " fill-opacity="1" fill-rule="nonzero"/></g><g clip-path="url(#23ed3e1ffc)"><path fill="#ffe296" d="M 43.210938 0.328125 L 47.667969 0.328125 L 47.667969 10.113281 L 43.210938 10.113281 Z M 43.210938 0.328125 " fill-opacity="1" fill-rule="nonzero"/></g><path fill="#ffe296" d="M 30.183594 2.917969 L 33.925781 11.960938 L 29.8125 13.664062 L 26.066406 4.621094 Z M 30.183594 2.917969 " fill-opacity="1" fill-rule="nonzero"/><path fill="#ffe296" d="M 15.023438 12.003906 L 21.945312 18.925781 L 18.792969 22.074219 L 11.871094 15.152344 Z M 15.023438 12.003906 " fill-opacity="1" fill-rule="nonzero"/><path fill="#ffe296" d="M 4.496094 26.199219 L 13.539062 29.941406 L 11.835938 34.058594 L 2.792969 30.3125 Z M 4.496094 26.199219 " fill-opacity="1" fill-rule="nonzero"/><path fill="#ffe296" d="M 0.199219 43.34375 L 9.984375 43.34375 L 9.984375 47.796875 L 0.199219 47.796875 Z M 0.199219 43.34375 " fill-opacity="1" fill-rule="nonzero"/><path fill="#ffe296" d="M 11.835938 57.078125 L 13.539062 61.195312 L 4.496094 64.941406 L 2.792969 60.824219 Z M 11.835938 57.078125 " fill-opacity="1" fill-rule="nonzero"/><path fill="#ffe296" d="M 18.792969 69.0625 L 21.941406 72.210938 L 15.019531 79.132812 L 11.871094 75.980469 Z M 18.792969 69.0625 " fill-opacity="1" fill-rule="nonzero"/><path fill="#ffe296" d="M 60.695312 2.917969 L 64.808594 4.621094 L 61.066406 13.664062 L 56.953125 11.960938 Z M 60.695312 2.917969 " fill-opacity="1" fill-rule="nonzero"/><path fill="#ffe296" d="M 75.851562 12.003906 L 79 15.152344 L 72.078125 22.074219 L 68.929688 18.925781 Z M 75.851562 12.003906 " fill-opacity="1" fill-rule="nonzero"/><path fill="#ffe296" d="M 86.382812 26.195312 L 88.085938 30.308594 L 79.046875 34.058594 L 77.339844 29.945312 Z M 86.382812 26.195312 " fill-opacity="1" fill-rule="nonzero"/><g clip-path="url(#56949c47c1)"><path fill="#ffe296" d="M 80.890625 43.335938 L 90.679688 43.335938 L 90.679688 47.792969 L 80.890625 47.792969 Z M 80.890625 43.335938 " fill-opacity="1" fill-rule="nonzero"/></g><path fill="#ffe296" d="M 79.039062 57.078125 L 88.082031 60.824219 L 86.378906 64.9375 L 77.335938 61.191406 Z M 79.039062 57.078125 " fill-opacity="1" fill-rule="nonzero"/><path fill="#ffe296" d="M 72.082031 69.058594 L 79.003906 75.980469 L 75.855469 79.128906 L 68.933594 72.207031 Z M 72.082031 69.058594 " fill-opacity="1" fill-rule="nonzero"/></svg>