<svg xmlns="http://www.w3.org/2000/svg" xmlns:xlink="http://www.w3.org/1999/xlink" width="213" zoomAndPan="magnify" viewBox="0 0 159.75 54.75" height="73" preserveAspectRatio="xMidYMid meet" version="1.0"><defs><g/><clipPath id="db4e4b6460"><path d="M 6 6 L 29 6 L 29 53.753906 L 6 53.753906 Z M 6 6 " clip-rule="nonzero"/></clipPath><clipPath id="b41bf181fd"><path d="M 0.238281 16 L 5 16 L 5 19 L 0.238281 19 Z M 0.238281 16 " clip-rule="nonzero"/></clipPath><clipPath id="f05ccc6c3b"><path d="M 31 16 L 34.582031 16 L 34.582031 19 L 31 19 Z M 31 16 " clip-rule="nonzero"/></clipPath></defs><path fill="#c25e46" d="M 17.59375 23.808594 C 13.992188 23.808594 11.0625 20.878906 11.0625 17.277344 C 11.0625 13.675781 13.992188 10.746094 17.59375 10.746094 C 21.195312 10.746094 24.125 13.675781 24.125 17.277344 C 24.125 20.878906 21.195312 23.808594 17.59375 23.808594 Z M 17.59375 12.445312 C 14.929688 12.445312 12.761719 14.613281 12.761719 17.277344 C 12.761719 19.941406 14.929688 22.105469 17.59375 22.105469 C 20.253906 22.105469 22.421875 19.9375 22.421875 17.277344 C 22.421875 14.613281 20.253906 12.445312 17.59375 12.445312 Z M 17.59375 12.445312 " fill-opacity="1" fill-rule="nonzero"/><g clip-path="url(#db4e4b6460)"><path fill="#c25e46" d="M 20.582031 53.765625 L 14.605469 53.765625 L 14.605469 27.5 C 10.125 26.1875 6.941406 21.992188 6.941406 17.277344 C 6.941406 11.402344 11.71875 6.625 17.59375 6.625 C 23.464844 6.625 28.242188 11.402344 28.242188 17.277344 C 28.242188 21.996094 25.058594 26.1875 20.582031 27.5 L 20.582031 39.589844 L 26.980469 39.589844 L 26.980469 44.855469 L 23.785156 44.855469 L 23.785156 46.71875 L 26.980469 46.71875 L 26.980469 51.984375 L 20.582031 51.984375 Z M 16.304688 52.066406 L 18.882812 52.066406 L 18.882812 50.28125 L 25.28125 50.28125 L 25.28125 48.421875 L 22.082031 48.421875 L 22.082031 43.15625 L 25.28125 43.15625 L 25.28125 41.292969 L 18.882812 41.292969 L 18.882812 26.160156 L 19.546875 26.011719 C 23.601562 25.109375 26.542969 21.433594 26.542969 17.277344 C 26.542969 12.339844 22.527344 8.328125 17.59375 8.328125 C 12.65625 8.328125 8.640625 12.339844 8.640625 17.277344 C 8.640625 21.433594 11.585938 25.109375 15.640625 26.011719 L 16.304688 26.160156 Z M 16.304688 52.066406 " fill-opacity="1" fill-rule="nonzero"/></g><path fill="#c25e46" d="M 16.742188 0 L 18.441406 0 L 18.441406 3.738281 L 16.742188 3.738281 Z M 16.742188 0 " fill-opacity="1" fill-rule="nonzero"/><path fill="#c25e46" d="M 11.765625 0.988281 L 13.195312 4.441406 L 11.625 5.09375 L 10.195312 1.640625 Z M 11.765625 0.988281 " fill-opacity="1" fill-rule="nonzero"/><path fill="#c25e46" d="M 5.976562 4.460938 L 8.621094 7.101562 L 7.417969 8.304688 L 4.773438 5.660156 Z M 5.976562 4.460938 " fill-opacity="1" fill-rule="nonzero"/><path fill="#c25e46" d="M 1.957031 9.878906 L 5.410156 11.308594 L 4.757812 12.882812 L 1.304688 11.453125 Z M 1.957031 9.878906 " fill-opacity="1" fill-rule="nonzero"/><g clip-path="url(#b41bf181fd)"><path fill="#c25e46" d="M 0.316406 16.425781 L 4.054688 16.425781 L 4.054688 18.128906 L 0.316406 18.128906 Z M 0.316406 16.425781 " fill-opacity="1" fill-rule="nonzero"/></g><path fill="#c25e46" d="M 4.761719 21.671875 L 5.410156 23.246094 L 1.957031 24.675781 L 1.308594 23.101562 Z M 4.761719 21.671875 " fill-opacity="1" fill-rule="nonzero"/><path fill="#c25e46" d="M 7.417969 26.25 L 8.621094 27.453125 L 5.976562 30.09375 L 4.773438 28.890625 Z M 7.417969 26.25 " fill-opacity="1" fill-rule="nonzero"/><path fill="#c25e46" d="M 23.417969 0.988281 L 24.988281 1.640625 L 23.5625 5.09375 L 21.988281 4.441406 Z M 23.417969 0.988281 " fill-opacity="1" fill-rule="nonzero"/><path fill="#c25e46" d="M 29.207031 4.460938 L 30.410156 5.660156 L 27.765625 8.304688 L 26.5625 7.101562 Z M 29.207031 4.460938 " fill-opacity="1" fill-rule="nonzero"/><path fill="#c25e46" d="M 33.226562 9.878906 L 33.878906 11.449219 L 30.425781 12.882812 L 29.773438 11.308594 Z M 33.226562 9.878906 " fill-opacity="1" fill-rule="nonzero"/><g clip-path="url(#f05ccc6c3b)"><path fill="#c25e46" d="M 31.132812 16.425781 L 34.871094 16.425781 L 34.871094 18.125 L 31.132812 18.125 Z M 31.132812 16.425781 " fill-opacity="1" fill-rule="nonzero"/></g><path fill="#c25e46" d="M 30.425781 21.671875 L 33.878906 23.101562 L 33.226562 24.671875 L 29.773438 23.242188 Z M 30.425781 21.671875 " fill-opacity="1" fill-rule="nonzero"/><path fill="#c25e46" d="M 27.765625 26.246094 L 30.410156 28.890625 L 29.207031 30.09375 L 26.566406 27.449219 Z M 27.765625 26.246094 " fill-opacity="1" fill-rule="nonzero"/><g fill="#c25e46" fill-opacity="1"><g transform="translate(46.006979, 38.46101)"><g><path d="M 2.953125 0 L 2.953125 -22.734375 L 12.078125 -22.734375 C 14.429688 -22.734375 16.207031 -22.191406 17.40625 -21.109375 C 18.601562 -20.023438 19.203125 -18.53125 19.203125 -16.625 C 19.203125 -15.238281 18.851562 -14.101562 18.15625 -13.21875 C 17.457031 -12.34375 16.410156 -11.671875 15.015625 -11.203125 L 15.015625 -10.890625 C 15.734375 -10.578125 16.3125 -10.113281 16.75 -9.5 C 17.195312 -8.882812 17.613281 -7.976562 18 -6.78125 L 20.28125 0 L 15.65625 0 L 13.4375 -6.796875 C 13.207031 -7.484375 12.945312 -8.015625 12.65625 -8.390625 C 12.375 -8.765625 12.015625 -9.035156 11.578125 -9.203125 C 11.140625 -9.378906 10.566406 -9.46875 9.859375 -9.46875 L 7.453125 -9.46875 L 7.453125 0 Z M 11.53125 -13.03125 C 13.707031 -13.03125 14.796875 -14.046875 14.796875 -16.078125 C 14.796875 -18.140625 13.707031 -19.171875 11.53125 -19.171875 L 7.453125 -19.171875 L 7.453125 -13.03125 Z M 11.53125 -13.03125 "/></g></g></g><g fill="#c25e46" fill-opacity="1"><g transform="translate(66.813085, 38.46101)"><g><path d="M 16.953125 -7.609375 L 5.921875 -7.609375 C 6.046875 -6.109375 6.46875 -5.019531 7.1875 -4.34375 C 7.914062 -3.664062 8.910156 -3.328125 10.171875 -3.328125 C 11.148438 -3.328125 11.945312 -3.507812 12.5625 -3.875 C 13.175781 -4.25 13.671875 -4.804688 14.046875 -5.546875 L 14.359375 -5.546875 L 17.234375 -3.71875 C 16.671875 -2.507812 15.820312 -1.53125 14.6875 -0.78125 C 13.5625 -0.0390625 12.054688 0.328125 10.171875 0.328125 C 8.398438 0.328125 6.867188 -0.00390625 5.578125 -0.671875 C 4.285156 -1.347656 3.289062 -2.351562 2.59375 -3.6875 C 1.894531 -5.019531 1.546875 -6.644531 1.546875 -8.5625 C 1.546875 -10.507812 1.910156 -12.148438 2.640625 -13.484375 C 3.378906 -14.828125 4.375 -15.828125 5.625 -16.484375 C 6.882812 -17.148438 8.296875 -17.484375 9.859375 -17.484375 C 12.285156 -17.484375 14.144531 -16.835938 15.4375 -15.546875 C 16.726562 -14.265625 17.375 -12.378906 17.375 -9.890625 C 17.375 -8.984375 17.34375 -8.285156 17.28125 -7.796875 Z M 13.25 -10.390625 C 13.207031 -11.691406 12.898438 -12.640625 12.328125 -13.234375 C 11.765625 -13.835938 10.941406 -14.140625 9.859375 -14.140625 C 7.679688 -14.140625 6.398438 -12.890625 6.015625 -10.390625 Z M 13.25 -10.390625 "/></g></g></g><g fill="#c25e46" fill-opacity="1"><g transform="translate(85.45775, 38.46101)"><g><path d="M 7.125 0.328125 C 5.570312 0.328125 4.390625 -0.0859375 3.578125 -0.921875 C 2.765625 -1.753906 2.359375 -3.023438 2.359375 -4.734375 L 2.359375 -24.03125 L 6.671875 -24.03125 L 6.671875 -4.890625 C 6.671875 -3.847656 7.101562 -3.328125 7.96875 -3.328125 C 8.21875 -3.328125 8.484375 -3.367188 8.765625 -3.453125 L 8.984375 -3.390625 L 9.375 -0.078125 C 9.132812 0.046875 8.816406 0.144531 8.421875 0.21875 C 8.035156 0.289062 7.601562 0.328125 7.125 0.328125 Z M 7.125 0.328125 "/></g></g></g><g fill="#c25e46" fill-opacity="1"><g transform="translate(95.316563, 38.46101)"><g><path d="M 9.96875 0.328125 C 8.289062 0.328125 6.816406 -0.015625 5.546875 -0.703125 C 4.273438 -1.390625 3.289062 -2.398438 2.59375 -3.734375 C 1.894531 -5.066406 1.546875 -6.675781 1.546875 -8.5625 C 1.546875 -10.445312 1.894531 -12.054688 2.59375 -13.390625 C 3.289062 -14.734375 4.273438 -15.75 5.546875 -16.4375 C 6.816406 -17.132812 8.289062 -17.484375 9.96875 -17.484375 C 11.644531 -17.484375 13.117188 -17.132812 14.390625 -16.4375 C 15.660156 -15.75 16.644531 -14.734375 17.34375 -13.390625 C 18.050781 -12.054688 18.40625 -10.445312 18.40625 -8.5625 C 18.40625 -6.675781 18.050781 -5.066406 17.34375 -3.734375 C 16.644531 -2.398438 15.660156 -1.390625 14.390625 -0.703125 C 13.117188 -0.015625 11.644531 0.328125 9.96875 0.328125 Z M 9.96875 -3.328125 C 12.632812 -3.328125 13.96875 -5.070312 13.96875 -8.5625 C 13.96875 -10.375 13.625 -11.703125 12.9375 -12.546875 C 12.25 -13.398438 11.257812 -13.828125 9.96875 -13.828125 C 7.300781 -13.828125 5.96875 -12.070312 5.96875 -8.5625 C 5.96875 -5.070312 7.300781 -3.328125 9.96875 -3.328125 Z M 9.96875 -3.328125 "/></g></g></g><g fill="#c25e46" fill-opacity="1"><g transform="translate(115.251893, 38.46101)"><g><path d="M 2.46875 0 L 2.46875 -24.03125 L 6.78125 -24.03125 L 6.78125 -10.703125 L 7.203125 -10.703125 L 12.15625 -17.15625 L 16.53125 -17.15625 L 16.53125 -16.796875 L 10.703125 -9.265625 L 17.1875 -0.390625 L 17.1875 0 L 12.640625 0 L 7.203125 -7.234375 L 6.78125 -7.234375 L 6.78125 0 Z M 2.46875 0 "/></g></g></g><g fill="#c25e46" fill-opacity="1"><g transform="translate(132.201566, 38.46101)"><g><path d="M 16.953125 -7.609375 L 5.921875 -7.609375 C 6.046875 -6.109375 6.46875 -5.019531 7.1875 -4.34375 C 7.914062 -3.664062 8.910156 -3.328125 10.171875 -3.328125 C 11.148438 -3.328125 11.945312 -3.507812 12.5625 -3.875 C 13.175781 -4.25 13.671875 -4.804688 14.046875 -5.546875 L 14.359375 -5.546875 L 17.234375 -3.71875 C 16.671875 -2.507812 15.820312 -1.53125 14.6875 -0.78125 C 13.5625 -0.0390625 12.054688 0.328125 10.171875 0.328125 C 8.398438 0.328125 6.867188 -0.00390625 5.578125 -0.671875 C 4.285156 -1.347656 3.289062 -2.351562 2.59375 -3.6875 C 1.894531 -5.019531 1.546875 -6.644531 1.546875 -8.5625 C 1.546875 -10.507812 1.910156 -12.148438 2.640625 -13.484375 C 3.378906 -14.828125 4.375 -15.828125 5.625 -16.484375 C 6.882812 -17.148438 8.296875 -17.484375 9.859375 -17.484375 C 12.285156 -17.484375 14.144531 -16.835938 15.4375 -15.546875 C 16.726562 -14.265625 17.375 -12.378906 17.375 -9.890625 C 17.375 -8.984375 17.34375 -8.285156 17.28125 -7.796875 Z M 13.25 -10.390625 C 13.207031 -11.691406 12.898438 -12.640625 12.328125 -13.234375 C 11.765625 -13.835938 10.941406 -14.140625 9.859375 -14.140625 C 7.679688 -14.140625 6.398438 -12.890625 6.015625 -10.390625 Z M 13.25 -10.390625 "/></g></g></g></svg>