<svg xmlns="http://www.w3.org/2000/svg" xmlns:xlink="http://www.w3.org/1999/xlink" width="162" zoomAndPan="magnify" viewBox="0 0 121.5 54" height="72" preserveAspectRatio="xMidYMid meet" version="1.0"><defs><g/><clipPath id="437ca6c907"><rect x="0" width="26" y="0" height="6"/></clipPath></defs><g fill="#c25e46" fill-opacity="1"><g transform="translate(8.553329, 37.677276)"><g><path d="M 2.90625 0 L 2.90625 -22.421875 L 11.921875 -22.421875 C 14.234375 -22.421875 15.976562 -21.882812 17.15625 -20.8125 C 18.34375 -19.75 18.9375 -18.273438 18.9375 -16.390625 C 18.9375 -15.035156 18.59375 -13.921875 17.90625 -13.046875 C 17.21875 -12.179688 16.1875 -11.519531 14.8125 -11.0625 L 14.8125 -10.734375 C 15.519531 -10.429688 16.085938 -9.976562 16.515625 -9.375 C 16.953125 -8.769531 17.367188 -7.875 17.765625 -6.6875 L 20 0 L 15.4375 0 L 13.25 -6.703125 C 13.019531 -7.378906 12.765625 -7.898438 12.484375 -8.265625 C 12.203125 -8.640625 11.84375 -8.910156 11.40625 -9.078125 C 10.976562 -9.253906 10.414062 -9.34375 9.71875 -9.34375 L 7.34375 -9.34375 L 7.34375 0 Z M 11.375 -12.84375 C 13.519531 -12.84375 14.59375 -13.847656 14.59375 -15.859375 C 14.59375 -17.890625 13.519531 -18.90625 11.375 -18.90625 L 7.34375 -18.90625 L 7.34375 -12.84375 Z M 11.375 -12.84375 "/></g></g></g><g fill="#c25e46" fill-opacity="1"><g transform="translate(29.07442, 37.677276)"><g><path d="M 16.71875 -7.5 L 5.84375 -7.5 C 5.96875 -6.03125 6.382812 -4.957031 7.09375 -4.28125 C 7.8125 -3.613281 8.789062 -3.28125 10.03125 -3.28125 C 11 -3.28125 11.785156 -3.460938 12.390625 -3.828125 C 12.992188 -4.191406 13.476562 -4.738281 13.84375 -5.46875 L 14.171875 -5.46875 L 16.984375 -3.671875 C 16.429688 -2.484375 15.597656 -1.519531 14.484375 -0.78125 C 13.367188 -0.0390625 11.882812 0.328125 10.03125 0.328125 C 8.28125 0.328125 6.769531 -0.00390625 5.5 -0.671875 C 4.226562 -1.335938 3.242188 -2.328125 2.546875 -3.640625 C 1.859375 -4.953125 1.515625 -6.554688 1.515625 -8.453125 C 1.515625 -10.367188 1.878906 -11.988281 2.609375 -13.3125 C 3.335938 -14.632812 4.316406 -15.617188 5.546875 -16.265625 C 6.785156 -16.910156 8.175781 -17.234375 9.71875 -17.234375 C 12.113281 -17.234375 13.945312 -16.597656 15.21875 -15.328125 C 16.488281 -14.066406 17.125 -12.207031 17.125 -9.75 C 17.125 -8.863281 17.09375 -8.175781 17.03125 -7.6875 Z M 13.0625 -10.25 C 13.019531 -11.53125 12.71875 -12.460938 12.15625 -13.046875 C 11.601562 -13.640625 10.789062 -13.9375 9.71875 -13.9375 C 7.570312 -13.9375 6.3125 -12.707031 5.9375 -10.25 Z M 13.0625 -10.25 "/></g></g></g><g fill="#c25e46" fill-opacity="1"><g transform="translate(47.463678, 37.677276)"><g><path d="M 7.03125 0.328125 C 5.5 0.328125 4.332031 -0.0820312 3.53125 -0.90625 C 2.726562 -1.726562 2.328125 -2.976562 2.328125 -4.65625 L 2.328125 -23.703125 L 6.578125 -23.703125 L 6.578125 -4.828125 C 6.578125 -3.796875 7.003906 -3.28125 7.859375 -3.28125 C 8.109375 -3.28125 8.375 -3.320312 8.65625 -3.40625 L 8.859375 -3.34375 L 9.25 -0.078125 C 9.007812 0.046875 8.695312 0.144531 8.3125 0.21875 C 7.925781 0.289062 7.5 0.328125 7.03125 0.328125 Z M 7.03125 0.328125 "/></g></g></g><g fill="#c25e46" fill-opacity="1"><g transform="translate(57.18744, 37.677276)"><g><path d="M 9.828125 0.328125 C 8.171875 0.328125 6.71875 -0.0078125 5.46875 -0.6875 C 4.21875 -1.375 3.242188 -2.375 2.546875 -3.6875 C 1.859375 -5 1.515625 -6.585938 1.515625 -8.453125 C 1.515625 -10.304688 1.859375 -11.894531 2.546875 -13.21875 C 3.242188 -14.539062 4.21875 -15.539062 5.46875 -16.21875 C 6.71875 -16.894531 8.171875 -17.234375 9.828125 -17.234375 C 11.484375 -17.234375 12.9375 -16.894531 14.1875 -16.21875 C 15.445312 -15.539062 16.421875 -14.539062 17.109375 -13.21875 C 17.804688 -11.894531 18.15625 -10.304688 18.15625 -8.453125 C 18.15625 -6.585938 17.804688 -5 17.109375 -3.6875 C 16.421875 -2.375 15.445312 -1.375 14.1875 -0.6875 C 12.9375 -0.0078125 11.484375 0.328125 9.828125 0.328125 Z M 9.828125 -3.28125 C 12.453125 -3.28125 13.765625 -5.003906 13.765625 -8.453125 C 13.765625 -10.242188 13.425781 -11.554688 12.75 -12.390625 C 12.082031 -13.222656 11.109375 -13.640625 9.828125 -13.640625 C 7.203125 -13.640625 5.890625 -11.910156 5.890625 -8.453125 C 5.890625 -5.003906 7.203125 -3.28125 9.828125 -3.28125 Z M 9.828125 -3.28125 "/></g></g></g><g fill="#c25e46" fill-opacity="1"><g transform="translate(76.849683, 37.677276)"><g><path d="M 2.4375 0 L 2.4375 -23.703125 L 6.6875 -23.703125 L 6.6875 -10.546875 L 7.09375 -10.546875 L 11.984375 -16.921875 L 16.296875 -16.921875 L 16.296875 -16.5625 L 10.546875 -9.140625 L 16.9375 -0.390625 L 16.9375 0 L 12.46875 0 L 7.09375 -7.125 L 6.6875 -7.125 L 6.6875 0 Z M 2.4375 0 "/></g></g></g><g fill="#c25e46" fill-opacity="1"><g transform="translate(93.567169, 37.677276)"><g><path d="M 16.71875 -7.5 L 5.84375 -7.5 C 5.96875 -6.03125 6.382812 -4.957031 7.09375 -4.28125 C 7.8125 -3.613281 8.789062 -3.28125 10.03125 -3.28125 C 11 -3.28125 11.785156 -3.460938 12.390625 -3.828125 C 12.992188 -4.191406 13.476562 -4.738281 13.84375 -5.46875 L 14.171875 -5.46875 L 16.984375 -3.671875 C 16.429688 -2.484375 15.597656 -1.519531 14.484375 -0.78125 C 13.367188 -0.0390625 11.882812 0.328125 10.03125 0.328125 C 8.28125 0.328125 6.769531 -0.00390625 5.5 -0.671875 C 4.226562 -1.335938 3.242188 -2.328125 2.546875 -3.640625 C 1.859375 -4.953125 1.515625 -6.554688 1.515625 -8.453125 C 1.515625 -10.367188 1.878906 -11.988281 2.609375 -13.3125 C 3.335938 -14.632812 4.316406 -15.617188 5.546875 -16.265625 C 6.785156 -16.910156 8.175781 -17.234375 9.71875 -17.234375 C 12.113281 -17.234375 13.945312 -16.597656 15.21875 -15.328125 C 16.488281 -14.066406 17.125 -12.207031 17.125 -9.75 C 17.125 -8.863281 17.09375 -8.175781 17.03125 -7.6875 Z M 13.0625 -10.25 C 13.019531 -11.53125 12.71875 -12.460938 12.15625 -13.046875 C 11.601562 -13.640625 10.789062 -13.9375 9.71875 -13.9375 C 7.570312 -13.9375 6.3125 -12.707031 5.9375 -10.25 Z M 13.0625 -10.25 "/></g></g></g><g transform="matrix(1, 0, 0, 1, 67, 26)"><g clip-path="url(#437ca6c907)"><g fill="#c25e46" fill-opacity="1"><g transform="translate(5.941012, 0.26127)"><g><path d="M -0.09375 2.46875 C -0.09375 2.113281 0.00390625 1.835938 0.203125 1.640625 C 0.398438 1.441406 0.660156 1.34375 0.984375 1.34375 C 1.296875 1.34375 1.554688 1.441406 1.765625 1.640625 C 1.972656 1.835938 2.078125 2.113281 2.078125 2.46875 C 2.078125 2.820312 1.976562 3.097656 1.78125 3.296875 C 1.582031 3.492188 1.320312 3.59375 1 3.59375 C 0.675781 3.59375 0.410156 3.488281 0.203125 3.28125 C 0.00390625 3.082031 -0.09375 2.8125 -0.09375 2.46875 Z M -0.09375 2.46875 "/></g></g></g></g></g></svg>