<svg xmlns="http://www.w3.org/2000/svg" xmlns:xlink="http://www.w3.org/1999/xlink" width="161" zoomAndPan="magnify" viewBox="0 0 120.75 186.749995" height="249" preserveAspectRatio="xMidYMid meet" version="1.0"><defs><g/><clipPath id="7c4db386fb"><path d="M 0 0.0664062 L 120.5 0.0664062 L 120.5 186.433594 L 0 186.433594 Z M 0 0.0664062 " clip-rule="nonzero"/></clipPath><clipPath id="487568631b"><path d="M 23 23 L 97 23 L 97 186.433594 L 23 186.433594 Z M 23 23 " clip-rule="nonzero"/></clipPath><clipPath id="e4be82d060"><path d="M 57 0.0664062 L 64 0.0664062 L 64 14 L 57 14 Z M 57 0.0664062 " clip-rule="nonzero"/></clipPath><clipPath id="6d146d4fae"><path d="M 106 56 L 119.753906 56 L 119.753906 63 L 106 63 Z M 106 56 " clip-rule="nonzero"/></clipPath></defs><g clip-path="url(#7c4db386fb)"><path fill="#ffffff" d="M 0 0.0664062 L 120.5 0.0664062 L 120.5 186.433594 L 0 186.433594 Z M 0 0.0664062 " fill-opacity="1" fill-rule="nonzero"/></g><path fill="#c25e46" d="M 60.105469 82.53125 C 47.628906 82.53125 37.484375 72.382812 37.484375 59.910156 C 37.484375 47.4375 47.628906 37.289062 60.105469 37.289062 C 72.578125 37.289062 82.726562 47.433594 82.726562 59.910156 C 82.726562 72.382812 72.578125 82.53125 60.105469 82.53125 Z M 60.105469 43.179688 C 50.878906 43.179688 43.375 50.683594 43.375 59.910156 C 43.375 69.132812 50.878906 76.640625 60.105469 76.640625 C 69.328125 76.640625 76.835938 69.132812 76.835938 59.910156 C 76.835938 50.683594 69.328125 43.179688 60.105469 43.179688 Z M 60.105469 43.179688 " fill-opacity="1" fill-rule="nonzero"/><g clip-path="url(#487568631b)"><path fill="#c25e46" d="M 70.460938 186.304688 L 49.75 186.304688 L 49.75 95.320312 C 34.238281 90.777344 23.207031 76.25 23.207031 59.910156 C 23.207031 39.566406 39.757812 23.019531 60.105469 23.019531 C 80.445312 23.019531 96.996094 39.566406 96.996094 59.910156 C 96.996094 76.25 85.96875 90.777344 70.460938 95.320312 L 70.460938 137.207031 L 92.628906 137.207031 L 92.628906 155.441406 L 81.546875 155.441406 L 81.546875 161.894531 L 92.628906 161.894531 L 92.628906 180.128906 L 70.460938 180.128906 Z M 55.640625 180.414062 L 64.570312 180.414062 L 64.570312 174.238281 L 86.734375 174.238281 L 86.734375 167.785156 L 75.65625 167.785156 L 75.65625 149.550781 L 86.734375 149.550781 L 86.734375 143.097656 L 64.570312 143.097656 L 64.570312 90.679688 L 66.875 90.164062 C 80.914062 87.039062 91.105469 74.3125 91.105469 59.910156 C 91.105469 42.816406 77.195312 28.910156 60.105469 28.910156 C 43.007812 28.910156 29.101562 42.816406 29.101562 59.910156 C 29.101562 74.3125 39.292969 87.039062 53.339844 90.164062 L 55.644531 90.679688 L 55.644531 180.414062 Z M 55.640625 180.414062 " fill-opacity="1" fill-rule="nonzero"/></g><g clip-path="url(#e4be82d060)"><path fill="#c25e46" d="M 57.15625 0.0664062 L 63.050781 0.0664062 L 63.050781 13.015625 L 57.15625 13.015625 Z M 57.15625 0.0664062 " fill-opacity="1" fill-rule="nonzero"/></g><path fill="#c25e46" d="M 39.921875 3.496094 L 44.875 15.457031 L 39.433594 17.710938 L 34.476562 5.75 Z M 39.921875 3.496094 " fill-opacity="1" fill-rule="nonzero"/><path fill="#c25e46" d="M 19.871094 15.515625 L 29.023438 24.671875 L 24.855469 28.835938 L 15.703125 19.679688 Z M 19.871094 15.515625 " fill-opacity="1" fill-rule="nonzero"/><path fill="#c25e46" d="M 5.945312 34.289062 L 17.90625 39.242188 L 15.652344 44.6875 L 3.691406 39.734375 Z M 5.945312 34.289062 " fill-opacity="1" fill-rule="nonzero"/><path fill="#c25e46" d="M 0.261719 56.96875 L 13.207031 56.96875 L 13.207031 62.859375 L 0.261719 62.859375 Z M 0.261719 56.96875 " fill-opacity="1" fill-rule="nonzero"/><path fill="#c25e46" d="M 15.652344 75.140625 L 17.910156 80.582031 L 5.949219 85.535156 L 3.691406 80.09375 Z M 15.652344 75.140625 " fill-opacity="1" fill-rule="nonzero"/><path fill="#c25e46" d="M 24.855469 90.988281 L 29.019531 95.15625 L 19.867188 104.308594 L 15.703125 100.144531 Z M 24.855469 90.988281 " fill-opacity="1" fill-rule="nonzero"/><path fill="#c25e46" d="M 80.28125 3.492188 L 85.726562 5.746094 L 80.773438 17.707031 L 75.332031 15.457031 Z M 80.28125 3.492188 " fill-opacity="1" fill-rule="nonzero"/><path fill="#c25e46" d="M 100.332031 15.515625 L 104.496094 19.679688 L 95.339844 28.835938 L 91.175781 24.671875 Z M 100.332031 15.515625 " fill-opacity="1" fill-rule="nonzero"/><path fill="#c25e46" d="M 114.261719 34.289062 L 116.515625 39.730469 L 104.558594 44.6875 L 102.300781 39.246094 Z M 114.261719 34.289062 " fill-opacity="1" fill-rule="nonzero"/><g clip-path="url(#6d146d4fae)"><path fill="#c25e46" d="M 106.996094 56.960938 L 119.945312 56.960938 L 119.945312 62.851562 L 106.996094 62.851562 Z M 106.996094 56.960938 " fill-opacity="1" fill-rule="nonzero"/></g><path fill="#c25e46" d="M 104.546875 75.136719 L 116.511719 80.089844 L 114.257812 85.535156 L 102.292969 80.578125 Z M 104.546875 75.136719 " fill-opacity="1" fill-rule="nonzero"/><path fill="#c25e46" d="M 95.347656 90.984375 L 104.503906 100.140625 L 100.335938 104.304688 L 91.179688 95.148438 Z M 95.347656 90.984375 " fill-opacity="1" fill-rule="nonzero"/><g fill="#c25e46" fill-opacity="1"><g transform="translate(47.522937, 93.623593)"><g><path d="M 2.890625 0.109375 C 2.472656 0.109375 2.144531 -0.00390625 1.90625 -0.234375 C 1.675781 -0.460938 1.5625 -0.765625 1.5625 -1.140625 C 1.5625 -1.515625 1.675781 -1.820312 1.90625 -2.0625 C 2.144531 -2.300781 2.472656 -2.421875 2.890625 -2.421875 C 3.296875 -2.421875 3.617188 -2.304688 3.859375 -2.078125 C 4.097656 -1.847656 4.21875 -1.546875 4.21875 -1.171875 C 4.21875 -0.785156 4.097656 -0.472656 3.859375 -0.234375 C 3.617188 -0.00390625 3.296875 0.109375 2.890625 0.109375 Z M 2.890625 0.109375 "/></g></g></g></svg>