<svg xmlns="http://www.w3.org/2000/svg" xmlns:xlink="http://www.w3.org/1999/xlink" width="429" zoomAndPan="magnify" viewBox="0 0 321.75 353.249998" height="471" preserveAspectRatio="xMidYMid meet" version="1.0"><defs><g/><clipPath id="684cca9ac0"><path d="M 0.214844 0 L 311 0 L 311 307 L 0.214844 307 Z M 0.214844 0 " clip-rule="nonzero"/></clipPath><clipPath id="ff69bcdf51"><path d="M 295 301 L 321 301 L 321 352.5 L 295 352.5 Z M 295 301 " clip-rule="nonzero"/></clipPath></defs><g fill="#000000" fill-opacity="1"><g transform="translate(182.93965, 208.469187)"><g><path d="M 2.890625 0.109375 C 2.472656 0.109375 2.144531 -0.00390625 1.90625 -0.234375 C 1.675781 -0.460938 1.5625 -0.765625 1.5625 -1.140625 C 1.5625 -1.515625 1.675781 -1.820312 1.90625 -2.0625 C 2.144531 -2.300781 2.472656 -2.421875 2.890625 -2.421875 C 3.296875 -2.421875 3.617188 -2.304688 3.859375 -2.078125 C 4.097656 -1.847656 4.21875 -1.546875 4.21875 -1.171875 C 4.21875 -0.785156 4.097656 -0.472656 3.859375 -0.234375 C 3.617188 -0.00390625 3.296875 0.109375 2.890625 0.109375 Z M 2.890625 0.109375 "/></g></g></g><g clip-path="url(#684cca9ac0)"><path fill="#c25e46" d="M 64.414062 79.371094 C 66.859375 79.117188 72.296875 78.960938 75.675781 80.703125 C 79.050781 82.449219 79.359375 78.351562 77.925781 75.382812 C 76.492188 72.414062 79.953125 68.835938 78.738281 62.382812 C 77.519531 55.933594 73.015625 50.503906 73.015625 48.460938 C 73.015625 46.417969 73.941406 44.976562 72.296875 42.730469 C 71.378906 41.46875 74.140625 40.273438 77.109375 42.730469 C 80.078125 45.191406 85.300781 42.085938 88.609375 45.492188 C 89.902344 46.828125 85.230469 47.152344 89.703125 54.5 C 90.179688 55.285156 91.816406 56.304688 101.167969 58.148438 C 110.515625 59.992188 122.871094 61.015625 122.390625 57.191406 C 121.914062 53.367188 119.347656 53.503906 122.40625 49.550781 C 125.46875 45.59375 137.199219 40.882812 142.660156 41.976562 C 148.117188 43.070312 155.011719 37.203125 156.167969 33.449219 C 157.328125 29.691406 159.445312 20.144531 159.578125 16.796875 C 159.710938 13.449219 159.648438 6.015625 164.152344 4.382812 C 168.65625 2.746094 173.019531 -0.121094 176.976562 0.0078125 C 180.933594 0.140625 183.59375 -0.199219 184.347656 0.558594 C 185.105469 1.3125 186.601562 14.617188 190.625 14.816406 C 194.652344 15.015625 195.199219 13.382812 197.449219 15.433594 C 199.703125 17.484375 200.859375 22.257812 204.882812 25.875 C 208.910156 29.492188 215.1875 30.378906 217.300781 32.839844 C 219.414062 35.296875 217.847656 43.828125 223.378906 46.6875 C 228.90625 49.550781 229.515625 45.324219 233.339844 47.027344 C 237.164062 48.730469 234.296875 53.375 240.503906 58.835938 C 246.710938 64.292969 251.355469 66.066406 255.3125 66.136719 C 259.265625 66.207031 257.292969 68.867188 260.769531 69.613281 C 264.25 70.363281 265.953125 67.839844 270.875 70.980469 C 275.792969 74.117188 273.265625 78.621094 278.722656 81.832031 C 284.183594 85.039062 289.503906 84.421875 292.574219 85.039062 C 295.644531 85.65625 296.597656 88.65625 302.328125 89.949219 C 308.058594 91.246094 309.832031 92.0625 310.519531 93.429688 C 311.207031 94.792969 310.039062 99.636719 304.441406 104.757812 C 298.84375 109.878906 294.101562 122.261719 293.492188 128.5 C 292.882812 134.742188 293.59375 139.859375 290.929688 143.347656 C 288.269531 146.832031 285.09375 144.980469 282.023438 146.105469 C 278.957031 147.234375 271.273438 153.273438 269.640625 158.59375 C 268.003906 163.914062 260.632812 164.730469 255.820312 171.078125 C 251.007812 177.425781 251.109375 181.519531 250.289062 182.953125 C 249.472656 184.386719 246.984375 186.839844 248.957031 188.484375 C 250.929688 190.125 253.253906 187.734375 254.484375 184.9375 C 255.71875 182.136719 256.257812 180.222656 259.667969 179.136719 C 263.078125 178.050781 266.085938 177.5625 267.308594 180.363281 C 268.535156 183.160156 266.972656 186.5 268.746094 189.847656 C 270.519531 193.195312 271.882812 194.621094 271.542969 196.941406 C 271.203125 199.265625 266.972656 198.578125 266.421875 201.585938 C 265.875 204.59375 270.308594 208.886719 272.292969 212.707031 C 274.273438 216.523438 271.195312 221.304688 266.214844 222.601562 C 261.234375 223.894531 260.484375 225.808594 261.03125 228.199219 C 261.582031 230.589844 266.761719 232.292969 267.378906 236.457031 C 267.996094 240.621094 261.988281 244.578125 263.695312 250.714844 C 265.398438 256.855469 275.160156 257.132812 278.570312 259.046875 C 281.976562 260.957031 279.863281 266.480469 277.542969 268.730469 C 275.222656 270.984375 277.335938 272.617188 276.519531 273.304688 C 275.699219 273.992188 270.03125 273.164062 262.9375 279.171875 C 255.84375 285.179688 253.722656 289.953125 246.628906 290.222656 C 239.53125 290.492188 232.300781 290.492188 224.726562 285.3125 C 217.152344 280.128906 211.761719 277.878906 204.9375 276.035156 C 198.113281 274.191406 194.425781 270.433594 190.808594 271.320312 C 187.195312 272.207031 185.351562 275.824219 180.03125 277.9375 C 174.707031 280.050781 170.476562 279.851562 168.292969 283.945312 C 166.109375 288.042969 164.265625 296.300781 166.71875 300.324219 C 169.171875 304.351562 169.378906 304.761719 168.355469 304.691406 C 167.328125 304.621094 163.917969 302.230469 161.667969 302.648438 C 159.417969 303.0625 156.753906 304.152344 155.050781 305.992188 C 153.347656 307.835938 149.871094 302.992188 146.453125 302.378906 C 143.035156 301.761719 142.359375 303.265625 139.835938 302.992188 C 137.316406 302.722656 134.308594 299.714844 129.941406 293.847656 C 125.578125 287.980469 123.1875 291.527344 121.074219 290.023438 C 118.960938 288.519531 116.160156 285.042969 112.207031 285.726562 C 108.25 286.414062 110.292969 288.65625 107.492188 289.550781 C 104.695312 290.445312 103.605469 287.640625 100.398438 287.980469 C 97.191406 288.320312 96.441406 289.484375 93.710938 288.1875 C 90.984375 286.890625 90.503906 284.640625 87.707031 283.953125 C 84.90625 283.265625 83.410156 284.980469 80.742188 283.476562 C 78.074219 281.972656 77.125 277.46875 75.351562 277.128906 C 73.578125 276.789062 68.59375 276.3125 65.867188 274.398438 C 63.136719 272.488281 60.683594 273.992188 60.136719 272.355469 C 59.589844 270.71875 61.910156 269.078125 60.953125 267.035156 C 59.996094 264.992188 52.972656 264.714844 53.519531 262.460938 C 54.066406 260.210938 58.5 259.390625 60.414062 254.957031 C 62.324219 250.523438 65.257812 247.386719 66.011719 242.195312 C 66.769531 237.003906 70.992188 223.632812 71.742188 216.808594 C 72.488281 209.984375 71.878906 200.296875 73.722656 196.0625 C 75.566406 191.828125 76.863281 190.671875 76.246094 185.832031 C 75.628906 180.988281 79.722656 177.917969 78.089844 170.816406 C 76.453125 163.714844 62.054688 157.445312 60.074219 148.566406 C 58.09375 139.691406 60.484375 137.445312 57.890625 131.988281 C 55.300781 126.527344 51.613281 126.457031 48.40625 120.796875 C 45.199219 115.136719 42.746094 119.703125 37.417969 113.703125 C 32.089844 107.703125 20.976562 102.035156 16.332031 103.0625 C 11.691406 104.085938 9.238281 103.949219 7.734375 101.21875 C 6.230469 98.488281 0.515625 95.890625 0.378906 94.316406 C 0.238281 92.742188 6.453125 93.699219 5.839844 88.785156 C 5.222656 83.875 0.507812 85.238281 0.378906 84.152344 C 0.246094 83.0625 -0.4375 81.351562 2.558594 78.898438 C 5.558594 76.449219 7.0625 73.101562 12.59375 72.960938 C 18.121094 72.824219 22.558594 75.484375 26.171875 74.597656 C 29.789062 73.710938 30.46875 72.34375 32.589844 70.570312 C 34.710938 68.796875 39.613281 68.796875 40.980469 69.613281 C 42.34375 70.433594 46.441406 72.136719 47.667969 76.101562 C 48.890625 80.066406 48.34375 82.449219 50.394531 82.515625 C 52.449219 82.585938 53.195312 79.71875 56.742188 78.832031 C 60.289062 77.945312 60.976562 79.734375 64.414062 79.378906 Z M 64.414062 79.371094 " fill-opacity="1" fill-rule="nonzero"/></g><g clip-path="url(#ff69bcdf51)"><path fill="#c25e46" d="M 319.511719 301.265625 C 321.414062 302 320.582031 305.207031 320.3125 308.347656 C 320.042969 311.484375 319.925781 314.277344 320.683594 315.835938 C 321.4375 317.390625 320.105469 319.398438 320.074219 324.585938 C 320.042969 329.769531 318.199219 330.792969 317.175781 332.160156 C 316.148438 333.523438 314.582031 339.324219 313.488281 342.941406 C 312.394531 346.558594 311.027344 352.425781 307.757812 352.425781 C 304.488281 352.425781 302.574219 349.21875 300.253906 346.695312 C 297.933594 344.175781 301.074219 343.898438 301.003906 342.601562 C 300.933594 341.304688 297.386719 340.347656 297.386719 338.574219 C 297.386719 336.800781 298.890625 336.59375 298.890625 334.960938 C 298.890625 333.324219 296.707031 334.34375 296.570312 332.914062 C 296.429688 331.488281 297.1875 331.003906 297.1875 328.960938 C 297.1875 326.914062 295.480469 325.960938 295.683594 324.664062 C 295.882812 323.367188 297.117188 324.046875 297.117188 320.777344 C 297.117188 317.507812 299.914062 313.75 302.847656 312.519531 C 305.777344 311.285156 309.539062 310.746094 310.664062 309.859375 C 311.792969 308.96875 313.148438 311.359375 314.722656 311.152344 C 316.296875 310.945312 316.226562 309.789062 316.226562 307.398438 C 316.226562 305.007812 317.421875 303.917969 317.691406 302.386719 C 317.960938 300.851562 318.972656 301.066406 319.519531 301.273438 Z M 319.511719 301.265625 " fill-opacity="1" fill-rule="nonzero"/></g></svg>