<svg xmlns="http://www.w3.org/2000/svg" xmlns:xlink="http://www.w3.org/1999/xlink" width="275" zoomAndPan="magnify" viewBox="0 0 206.25 91.5" height="122" preserveAspectRatio="xMidYMid meet" version="1.0"><defs><g/><clipPath id="5c40c283c5"><rect x="0" width="180" y="0" height="75"/></clipPath></defs><g transform="matrix(1, 0, 0, 1, 13, 7)"><g clip-path="url(#5c40c283c5)"><g fill="#ffffff" fill-opacity="1"><g transform="translate(0.447295, 57.930785)"><g><path d="M 5.015625 0 L 5.015625 -38.65625 L 20.546875 -38.65625 C 24.546875 -38.65625 27.5625 -37.734375 29.59375 -35.890625 C 31.625 -34.046875 32.640625 -31.503906 32.640625 -28.265625 C 32.640625 -25.921875 32.046875 -24 30.859375 -22.5 C 29.671875 -21 27.894531 -19.851562 25.53125 -19.0625 L 25.53125 -18.5 C 26.75 -17.976562 27.734375 -17.195312 28.484375 -16.15625 C 29.234375 -15.113281 29.941406 -13.570312 30.609375 -11.53125 L 34.46875 0 L 26.625 0 L 22.84375 -11.546875 C 22.457031 -12.710938 22.019531 -13.617188 21.53125 -14.265625 C 21.050781 -14.910156 20.4375 -15.375 19.6875 -15.65625 C 18.9375 -15.945312 17.960938 -16.09375 16.765625 -16.09375 L 12.65625 -16.09375 L 12.65625 0 Z M 19.609375 -22.15625 C 23.316406 -22.15625 25.171875 -23.878906 25.171875 -27.328125 C 25.171875 -30.835938 23.316406 -32.59375 19.609375 -32.59375 L 12.65625 -32.59375 L 12.65625 -22.15625 Z M 19.609375 -22.15625 "/></g></g></g><g fill="#ffffff" fill-opacity="1"><g transform="translate(35.812127, 57.930785)"><g><path d="M 28.8125 -12.921875 L 10.078125 -12.921875 C 10.285156 -10.390625 11.003906 -8.546875 12.234375 -7.390625 C 13.472656 -6.234375 15.15625 -5.65625 17.28125 -5.65625 C 18.957031 -5.65625 20.316406 -5.96875 21.359375 -6.59375 C 22.398438 -7.21875 23.238281 -8.164062 23.875 -9.4375 L 24.421875 -9.4375 L 29.296875 -6.3125 C 28.335938 -4.269531 26.894531 -2.613281 24.96875 -1.34375 C 23.050781 -0.0703125 20.488281 0.5625 17.28125 0.5625 C 14.269531 0.5625 11.664062 -0.0078125 9.46875 -1.15625 C 7.28125 -2.300781 5.585938 -4.003906 4.390625 -6.265625 C 3.203125 -8.535156 2.609375 -11.300781 2.609375 -14.5625 C 2.609375 -17.875 3.234375 -20.664062 4.484375 -22.9375 C 5.742188 -25.21875 7.4375 -26.914062 9.5625 -28.03125 C 11.695312 -29.15625 14.097656 -29.71875 16.765625 -29.71875 C 20.890625 -29.71875 24.046875 -28.625 26.234375 -26.4375 C 28.429688 -24.25 29.53125 -21.039062 29.53125 -16.8125 C 29.53125 -15.28125 29.476562 -14.09375 29.375 -13.25 Z M 22.515625 -17.65625 C 22.453125 -19.875 21.9375 -21.488281 20.96875 -22.5 C 20.007812 -23.519531 18.609375 -24.03125 16.765625 -24.03125 C 13.054688 -24.03125 10.878906 -21.90625 10.234375 -17.65625 Z M 22.515625 -17.65625 "/></g></g></g><g fill="#ffffff" fill-opacity="1"><g transform="translate(67.503085, 57.930785)"><g><path d="M 12.109375 0.5625 C 9.484375 0.5625 7.476562 -0.144531 6.09375 -1.5625 C 4.707031 -2.988281 4.015625 -5.144531 4.015625 -8.03125 L 4.015625 -40.875 L 11.34375 -40.875 L 11.34375 -8.328125 C 11.34375 -6.546875 12.082031 -5.65625 13.5625 -5.65625 C 13.988281 -5.65625 14.4375 -5.726562 14.90625 -5.875 L 15.28125 -5.765625 L 15.9375 -0.125 C 15.53125 0.0820312 14.992188 0.25 14.328125 0.375 C 13.660156 0.5 12.921875 0.5625 12.109375 0.5625 Z M 12.109375 0.5625 "/></g></g></g><g fill="#ffffff" fill-opacity="1"><g transform="translate(84.260439, 57.930785)"><g><path d="M 16.953125 0.5625 C 14.085938 0.5625 11.578125 -0.0195312 9.421875 -1.1875 C 7.265625 -2.363281 5.585938 -4.082031 4.390625 -6.34375 C 3.203125 -8.613281 2.609375 -11.351562 2.609375 -14.5625 C 2.609375 -17.769531 3.203125 -20.507812 4.390625 -22.78125 C 5.585938 -25.0625 7.265625 -26.785156 9.421875 -27.953125 C 11.578125 -29.128906 14.085938 -29.71875 16.953125 -29.71875 C 19.804688 -29.71875 22.3125 -29.128906 24.46875 -27.953125 C 26.625 -26.785156 28.300781 -25.0625 29.5 -22.78125 C 30.695312 -20.507812 31.296875 -17.769531 31.296875 -14.5625 C 31.296875 -11.351562 30.695312 -8.613281 29.5 -6.34375 C 28.300781 -4.082031 26.625 -2.363281 24.46875 -1.1875 C 22.3125 -0.0195312 19.804688 0.5625 16.953125 0.5625 Z M 16.953125 -5.65625 C 21.472656 -5.65625 23.734375 -8.625 23.734375 -14.5625 C 23.734375 -17.644531 23.148438 -19.90625 21.984375 -21.34375 C 20.828125 -22.78125 19.148438 -23.5 16.953125 -23.5 C 12.421875 -23.5 10.15625 -20.519531 10.15625 -14.5625 C 10.15625 -8.625 12.421875 -5.65625 16.953125 -5.65625 Z M 16.953125 -5.65625 "/></g></g></g><g fill="#ffffff" fill-opacity="1"><g transform="translate(118.145184, 57.930785)"><g><path d="M 4.203125 0 L 4.203125 -40.875 L 11.53125 -40.875 L 11.53125 -18.1875 L 12.234375 -18.1875 L 20.671875 -29.15625 L 28.09375 -29.15625 L 28.09375 -28.546875 L 18.1875 -15.75 L 29.21875 -0.65625 L 29.21875 0 L 21.5 0 L 12.234375 -12.296875 L 11.53125 -12.296875 L 11.53125 0 Z M 4.203125 0 "/></g></g></g><g fill="#ffffff" fill-opacity="1"><g transform="translate(146.955108, 57.930785)"><g><path d="M 28.8125 -12.921875 L 10.078125 -12.921875 C 10.285156 -10.390625 11.003906 -8.546875 12.234375 -7.390625 C 13.472656 -6.234375 15.15625 -5.65625 17.28125 -5.65625 C 18.957031 -5.65625 20.316406 -5.96875 21.359375 -6.59375 C 22.398438 -7.21875 23.238281 -8.164062 23.875 -9.4375 L 24.421875 -9.4375 L 29.296875 -6.3125 C 28.335938 -4.269531 26.894531 -2.613281 24.96875 -1.34375 C 23.050781 -0.0703125 20.488281 0.5625 17.28125 0.5625 C 14.269531 0.5625 11.664062 -0.0078125 9.46875 -1.15625 C 7.28125 -2.300781 5.585938 -4.003906 4.390625 -6.265625 C 3.203125 -8.535156 2.609375 -11.300781 2.609375 -14.5625 C 2.609375 -17.875 3.234375 -20.664062 4.484375 -22.9375 C 5.742188 -25.21875 7.4375 -26.914062 9.5625 -28.03125 C 11.695312 -29.15625 14.097656 -29.71875 16.765625 -29.71875 C 20.890625 -29.71875 24.046875 -28.625 26.234375 -26.4375 C 28.429688 -24.25 29.53125 -21.039062 29.53125 -16.8125 C 29.53125 -15.28125 29.476562 -14.09375 29.375 -13.25 Z M 22.515625 -17.65625 C 22.453125 -19.875 21.9375 -21.488281 20.96875 -22.5 C 20.007812 -23.519531 18.609375 -24.03125 16.765625 -24.03125 C 13.054688 -24.03125 10.878906 -21.90625 10.234375 -17.65625 Z M 22.515625 -17.65625 "/></g></g></g></g></g><g fill="#ffffff" fill-opacity="1"><g transform="translate(18.67058, 51.595853)"><g><path d="M 2.46875 0.078125 C 2.15625 0.078125 1.878906 0.015625 1.640625 -0.109375 C 1.410156 -0.234375 1.234375 -0.40625 1.109375 -0.625 C 0.984375 -0.851562 0.921875 -1.101562 0.921875 -1.375 C 0.921875 -1.65625 0.984375 -1.90625 1.109375 -2.125 C 1.234375 -2.351562 1.410156 -2.53125 1.640625 -2.65625 C 1.878906 -2.78125 2.15625 -2.84375 2.46875 -2.84375 C 2.78125 -2.84375 3.050781 -2.78125 3.28125 -2.65625 C 3.519531 -2.53125 3.703125 -2.359375 3.828125 -2.140625 C 3.953125 -1.921875 4.015625 -1.671875 4.015625 -1.390625 C 4.015625 -0.960938 3.875 -0.609375 3.59375 -0.328125 C 3.3125 -0.0546875 2.9375 0.078125 2.46875 0.078125 Z M 2.46875 0.078125 "/></g></g></g></svg>