<svg xmlns="http://www.w3.org/2000/svg" xmlns:xlink="http://www.w3.org/1999/xlink" width="83" zoomAndPan="magnify" viewBox="0 0 62.25 96.75" height="129" preserveAspectRatio="xMidYMid meet" version="1.0"><defs><g/><clipPath id="03269a46b4"><path d="M 29 0.453125 L 33 0.453125 L 33 8 L 29 8 Z M 29 0.453125 " clip-rule="nonzero"/></clipPath><clipPath id="4840ac5131"><path d="M 54 29 L 61.507812 29 L 61.507812 33 L 54 33 Z M 54 29 " clip-rule="nonzero"/></clipPath><clipPath id="24139892f7"><path d="M 0.175781 4 L 1.601562 4 L 1.601562 6 L 0.175781 6 Z M 0.175781 4 " clip-rule="nonzero"/></clipPath><clipPath id="dfb206a6f7"><rect x="0" width="2" y="0" height="7"/></clipPath></defs><path fill="#ffffff" d="M 30.742188 42.628906 C 24.363281 42.628906 19.175781 37.4375 19.175781 31.058594 C 19.175781 24.679688 24.363281 19.488281 30.742188 19.488281 C 37.125 19.488281 42.3125 24.679688 42.3125 31.058594 C 42.3125 37.4375 37.125 42.628906 30.742188 42.628906 Z M 30.742188 22.503906 C 26.027344 22.503906 22.1875 26.339844 22.1875 31.058594 C 22.1875 35.777344 26.027344 39.613281 30.742188 39.613281 C 35.460938 39.613281 39.300781 35.777344 39.300781 31.058594 C 39.300781 26.339844 35.460938 22.503906 30.742188 22.503906 Z M 30.742188 22.503906 " fill-opacity="1" fill-rule="nonzero"/><path fill="#ffffff" d="M 36.039062 95.703125 L 25.449219 95.703125 L 25.449219 49.167969 C 17.515625 46.847656 11.871094 39.417969 11.871094 31.058594 C 11.871094 20.652344 20.339844 12.191406 30.742188 12.191406 C 41.148438 12.191406 49.609375 20.652344 49.609375 31.058594 C 49.609375 39.417969 43.972656 46.847656 36.039062 49.167969 L 36.039062 70.589844 L 47.378906 70.589844 L 47.378906 79.917969 L 41.710938 79.917969 L 41.710938 83.21875 L 47.378906 83.21875 L 47.378906 92.542969 L 36.039062 92.542969 Z M 28.460938 92.691406 L 33.027344 92.691406 L 33.027344 89.53125 L 44.363281 89.53125 L 44.363281 86.230469 L 38.699219 86.230469 L 38.699219 76.90625 L 44.363281 76.90625 L 44.363281 73.605469 L 33.027344 73.605469 L 33.027344 46.796875 L 34.207031 46.53125 C 41.386719 44.933594 46.597656 38.425781 46.597656 31.058594 C 46.597656 22.316406 39.484375 15.203125 30.742188 15.203125 C 22 15.203125 14.886719 22.316406 14.886719 31.058594 C 14.886719 38.425781 20.101562 44.933594 27.285156 46.53125 L 28.460938 46.796875 Z M 28.460938 92.691406 " fill-opacity="1" fill-rule="nonzero"/><g clip-path="url(#03269a46b4)"><path fill="#ffffff" d="M 29.238281 0.453125 L 32.25 0.453125 L 32.25 7.074219 L 29.238281 7.074219 Z M 29.238281 0.453125 " fill-opacity="1" fill-rule="nonzero"/></g><path fill="#ffffff" d="M 20.421875 2.203125 L 22.953125 8.324219 L 20.171875 9.476562 L 17.636719 3.359375 Z M 20.421875 2.203125 " fill-opacity="1" fill-rule="nonzero"/><path fill="#ffffff" d="M 10.164062 8.351562 L 14.847656 13.035156 L 12.714844 15.167969 L 8.035156 10.484375 Z M 10.164062 8.351562 " fill-opacity="1" fill-rule="nonzero"/><path fill="#ffffff" d="M 3.042969 17.953125 L 9.160156 20.488281 L 8.007812 23.273438 L 1.890625 20.738281 Z M 3.042969 17.953125 " fill-opacity="1" fill-rule="nonzero"/><path fill="#ffffff" d="M 0.136719 29.554688 L 6.757812 29.554688 L 6.757812 32.566406 L 0.136719 32.566406 Z M 0.136719 29.554688 " fill-opacity="1" fill-rule="nonzero"/><path fill="#ffffff" d="M 8.007812 38.847656 L 9.164062 41.632812 L 3.046875 44.164062 L 1.890625 41.382812 Z M 8.007812 38.847656 " fill-opacity="1" fill-rule="nonzero"/><path fill="#ffffff" d="M 12.714844 46.953125 L 14.847656 49.085938 L 10.164062 53.765625 L 8.035156 51.636719 Z M 12.714844 46.953125 " fill-opacity="1" fill-rule="nonzero"/><path fill="#ffffff" d="M 41.0625 2.203125 L 43.847656 3.355469 L 41.316406 9.472656 L 38.53125 8.320312 Z M 41.0625 2.203125 " fill-opacity="1" fill-rule="nonzero"/><path fill="#ffffff" d="M 51.316406 8.351562 L 53.449219 10.484375 L 48.765625 15.167969 L 46.632812 13.035156 Z M 51.316406 8.351562 " fill-opacity="1" fill-rule="nonzero"/><path fill="#ffffff" d="M 58.441406 17.953125 L 59.597656 20.738281 L 53.480469 23.273438 L 52.324219 20.488281 Z M 58.441406 17.953125 " fill-opacity="1" fill-rule="nonzero"/><g clip-path="url(#4840ac5131)"><path fill="#ffffff" d="M 54.726562 29.550781 L 61.351562 29.550781 L 61.351562 32.5625 L 54.726562 32.5625 Z M 54.726562 29.550781 " fill-opacity="1" fill-rule="nonzero"/></g><path fill="#ffffff" d="M 53.476562 38.847656 L 59.59375 41.378906 L 58.441406 44.164062 L 52.320312 41.628906 Z M 53.476562 38.847656 " fill-opacity="1" fill-rule="nonzero"/><path fill="#ffffff" d="M 48.769531 46.953125 L 53.453125 51.636719 L 51.320312 53.765625 L 46.636719 49.082031 Z M 48.769531 46.953125 " fill-opacity="1" fill-rule="nonzero"/><g transform="matrix(1, 0, 0, 1, 15, 37)"><g clip-path="url(#dfb206a6f7)"><g clip-path="url(#24139892f7)"><g fill="#ffffff" fill-opacity="1"><g transform="translate(0.26822, 5.145242)"><g><path d="M 0.546875 0.015625 C 0.472656 0.015625 0.410156 0.00390625 0.359375 -0.015625 C 0.304688 -0.046875 0.265625 -0.0859375 0.234375 -0.140625 C 0.210938 -0.191406 0.203125 -0.25 0.203125 -0.3125 C 0.203125 -0.363281 0.210938 -0.414062 0.234375 -0.46875 C 0.265625 -0.519531 0.304688 -0.554688 0.359375 -0.578125 C 0.410156 -0.609375 0.472656 -0.625 0.546875 -0.625 C 0.617188 -0.625 0.679688 -0.609375 0.734375 -0.578125 C 0.785156 -0.554688 0.820312 -0.519531 0.84375 -0.46875 C 0.875 -0.425781 0.890625 -0.375 0.890625 -0.3125 C 0.890625 -0.21875 0.859375 -0.140625 0.796875 -0.078125 C 0.734375 -0.015625 0.648438 0.015625 0.546875 0.015625 Z M 0.546875 0.015625 "/></g></g></g></g></g></g></svg>