<svg xmlns="http://www.w3.org/2000/svg" xmlns:xlink="http://www.w3.org/1999/xlink" width="364" zoomAndPan="magnify" viewBox="0 0 273 96.749999" height="129" preserveAspectRatio="xMidYMid meet" version="1.0"><defs><g/><clipPath id="c74ea2dec0"><path d="M 12 11 L 51 11 L 51 96.5 L 12 96.5 Z M 12 11 " clip-rule="nonzero"/></clipPath><clipPath id="76eb8b3801"><path d="M 0.351562 29 L 8 29 L 8 33 L 0.351562 33 Z M 0.351562 29 " clip-rule="nonzero"/></clipPath><clipPath id="6c53dd9849"><path d="M 55 29 L 62.441406 29 L 62.441406 33 L 55 33 Z M 55 29 " clip-rule="nonzero"/></clipPath><clipPath id="031f22175c"><rect x="0" width="181" y="0" height="75"/></clipPath></defs><path fill="#ffffff" d="M 31.386719 42.574219 C 24.945312 42.574219 19.707031 37.335938 19.707031 30.894531 C 19.707031 24.457031 24.945312 19.214844 31.386719 19.214844 C 37.824219 19.214844 43.066406 24.453125 43.066406 30.894531 C 43.066406 37.335938 37.824219 42.574219 31.386719 42.574219 Z M 31.386719 22.257812 C 26.625 22.257812 22.75 26.132812 22.75 30.894531 C 22.75 35.65625 26.625 39.53125 31.386719 39.53125 C 36.148438 39.53125 40.023438 35.65625 40.023438 30.894531 C 40.023438 26.132812 36.148438 22.257812 31.386719 22.257812 Z M 31.386719 22.257812 " fill-opacity="1" fill-rule="nonzero"/><g clip-path="url(#c74ea2dec0)"><path fill="#ffffff" d="M 36.730469 96.148438 L 26.039062 96.148438 L 26.039062 49.175781 C 18.03125 46.832031 12.335938 39.332031 12.335938 30.894531 C 12.335938 20.390625 20.882812 11.847656 31.386719 11.847656 C 41.886719 11.847656 50.429688 20.390625 50.429688 30.894531 C 50.429688 39.332031 44.738281 46.832031 36.730469 49.175781 L 36.730469 70.800781 L 48.175781 70.800781 L 48.175781 80.21875 L 42.457031 80.21875 L 42.457031 83.546875 L 48.175781 83.546875 L 48.175781 92.960938 L 36.730469 92.960938 Z M 29.082031 93.109375 L 33.691406 93.109375 L 33.691406 89.921875 L 45.136719 89.921875 L 45.136719 86.589844 L 39.414062 86.589844 L 39.414062 77.175781 L 45.136719 77.175781 L 45.136719 73.84375 L 33.691406 73.84375 L 33.691406 46.78125 L 34.882812 46.515625 C 42.128906 44.902344 47.390625 38.332031 47.390625 30.894531 C 47.390625 22.070312 40.210938 14.890625 31.386719 14.890625 C 22.558594 14.890625 15.378906 22.070312 15.378906 30.894531 C 15.378906 38.332031 20.640625 44.902344 27.894531 46.515625 L 29.082031 46.78125 Z M 29.082031 93.109375 " fill-opacity="1" fill-rule="nonzero"/></g><path fill="#ffffff" d="M 29.863281 0 L 32.90625 0 L 32.90625 6.683594 L 29.863281 6.683594 Z M 29.863281 0 " fill-opacity="1" fill-rule="nonzero"/><path fill="#ffffff" d="M 20.964844 1.769531 L 23.523438 7.945312 L 20.714844 9.109375 L 18.15625 2.933594 Z M 20.964844 1.769531 " fill-opacity="1" fill-rule="nonzero"/><path fill="#ffffff" d="M 10.613281 7.972656 L 15.339844 12.703125 L 13.1875 14.851562 L 8.460938 10.125 Z M 10.613281 7.972656 " fill-opacity="1" fill-rule="nonzero"/><path fill="#ffffff" d="M 3.425781 17.667969 L 9.601562 20.226562 L 8.4375 23.035156 L 2.261719 20.476562 Z M 3.425781 17.667969 " fill-opacity="1" fill-rule="nonzero"/><g clip-path="url(#76eb8b3801)"><path fill="#ffffff" d="M 0.488281 29.375 L 7.171875 29.375 L 7.171875 32.417969 L 0.488281 32.417969 Z M 0.488281 29.375 " fill-opacity="1" fill-rule="nonzero"/></g><path fill="#ffffff" d="M 8.4375 38.757812 L 9.601562 41.570312 L 3.425781 44.125 L 2.261719 41.316406 Z M 8.4375 38.757812 " fill-opacity="1" fill-rule="nonzero"/><path fill="#ffffff" d="M 13.1875 46.941406 L 15.339844 49.089844 L 10.613281 53.816406 L 8.460938 51.667969 Z M 13.1875 46.941406 " fill-opacity="1" fill-rule="nonzero"/><path fill="#ffffff" d="M 41.804688 1.769531 L 44.613281 2.933594 L 42.058594 9.105469 L 39.246094 7.945312 Z M 41.804688 1.769531 " fill-opacity="1" fill-rule="nonzero"/><path fill="#ffffff" d="M 52.15625 7.976562 L 54.304688 10.125 L 49.578125 14.851562 L 47.425781 12.703125 Z M 52.15625 7.976562 " fill-opacity="1" fill-rule="nonzero"/><path fill="#ffffff" d="M 59.347656 17.667969 L 60.511719 20.476562 L 54.335938 23.035156 L 53.171875 20.226562 Z M 59.347656 17.667969 " fill-opacity="1" fill-rule="nonzero"/><g clip-path="url(#6c53dd9849)"><path fill="#ffffff" d="M 55.59375 29.371094 L 62.28125 29.371094 L 62.28125 32.414062 L 55.59375 32.414062 Z M 55.59375 29.371094 " fill-opacity="1" fill-rule="nonzero"/></g><path fill="#ffffff" d="M 54.332031 38.757812 L 60.507812 41.3125 L 59.34375 44.125 L 53.167969 41.566406 Z M 54.332031 38.757812 " fill-opacity="1" fill-rule="nonzero"/><path fill="#ffffff" d="M 49.582031 46.9375 L 54.308594 51.664062 L 52.15625 53.816406 L 47.429688 49.089844 Z M 49.582031 46.9375 " fill-opacity="1" fill-rule="nonzero"/><g transform="matrix(1, 0, 0, 1, 79, 10)"><g clip-path="url(#031f22175c)"><g fill="#ffffff" fill-opacity="1"><g transform="translate(0.944663, 57.807667)"><g><path d="M 5.03125 0 L 5.03125 -38.765625 L 20.59375 -38.765625 C 24.613281 -38.765625 27.644531 -37.835938 29.6875 -35.984375 C 31.726562 -34.140625 32.75 -31.59375 32.75 -28.34375 C 32.75 -25.988281 32.148438 -24.0625 30.953125 -22.5625 C 29.753906 -21.0625 27.972656 -19.910156 25.609375 -19.109375 L 25.609375 -18.5625 C 26.828125 -18.03125 27.8125 -17.242188 28.5625 -16.203125 C 29.3125 -15.160156 30.023438 -13.613281 30.703125 -11.5625 L 34.578125 0 L 26.703125 0 L 22.90625 -11.578125 C 22.519531 -12.742188 22.082031 -13.648438 21.59375 -14.296875 C 21.101562 -14.941406 20.484375 -15.410156 19.734375 -15.703125 C 18.984375 -15.992188 18.007812 -16.140625 16.8125 -16.140625 L 12.703125 -16.140625 L 12.703125 0 Z M 19.671875 -22.21875 C 23.378906 -22.21875 25.234375 -23.945312 25.234375 -27.40625 C 25.234375 -30.925781 23.378906 -32.6875 19.671875 -32.6875 L 12.703125 -32.6875 L 12.703125 -22.21875 Z M 19.671875 -22.21875 "/></g></g></g><g fill="#ffffff" fill-opacity="1"><g transform="translate(36.4111, 57.807667)"><g><path d="M 28.890625 -12.96875 L 10.09375 -12.96875 C 10.3125 -10.414062 11.035156 -8.5625 12.265625 -7.40625 C 13.503906 -6.25 15.195312 -5.671875 17.34375 -5.671875 C 19.019531 -5.671875 20.378906 -5.984375 21.421875 -6.609375 C 22.460938 -7.242188 23.300781 -8.195312 23.9375 -9.46875 L 24.5 -9.46875 L 29.375 -6.34375 C 28.414062 -4.289062 26.972656 -2.625 25.046875 -1.34375 C 23.128906 -0.0703125 20.5625 0.5625 17.34375 0.5625 C 14.320312 0.5625 11.707031 -0.0078125 9.5 -1.15625 C 7.300781 -2.3125 5.601562 -4.023438 4.40625 -6.296875 C 3.21875 -8.566406 2.625 -11.335938 2.625 -14.609375 C 2.625 -17.929688 3.25 -20.734375 4.5 -23.015625 C 5.757812 -25.296875 7.457031 -26.992188 9.59375 -28.109375 C 11.738281 -29.234375 14.144531 -29.796875 16.8125 -29.796875 C 20.945312 -29.796875 24.113281 -28.695312 26.3125 -26.5 C 28.507812 -24.3125 29.609375 -21.097656 29.609375 -16.859375 C 29.609375 -15.328125 29.554688 -14.132812 29.453125 -13.28125 Z M 22.59375 -17.703125 C 22.519531 -19.929688 22 -21.550781 21.03125 -22.5625 C 20.070312 -23.582031 18.664062 -24.09375 16.8125 -24.09375 C 13.09375 -24.09375 10.910156 -21.960938 10.265625 -17.703125 Z M 22.59375 -17.703125 "/></g></g></g><g fill="#ffffff" fill-opacity="1"><g transform="translate(68.193109, 57.807667)"><g><path d="M 12.140625 0.5625 C 9.503906 0.5625 7.492188 -0.148438 6.109375 -1.578125 C 4.722656 -3.003906 4.03125 -5.164062 4.03125 -8.0625 L 4.03125 -40.984375 L 11.375 -40.984375 L 11.375 -8.34375 C 11.375 -6.5625 12.113281 -5.671875 13.59375 -5.671875 C 14.019531 -5.671875 14.472656 -5.742188 14.953125 -5.890625 L 15.328125 -5.78125 L 15.984375 -0.125 C 15.578125 0.0820312 15.035156 0.25 14.359375 0.375 C 13.691406 0.5 12.953125 0.5625 12.140625 0.5625 Z M 12.140625 0.5625 "/></g></g></g><g fill="#ffffff" fill-opacity="1"><g transform="translate(84.998608, 57.807667)"><g><path d="M 17 0.5625 C 14.132812 0.5625 11.617188 -0.0234375 9.453125 -1.203125 C 7.285156 -2.378906 5.601562 -4.101562 4.40625 -6.375 C 3.21875 -8.644531 2.625 -11.390625 2.625 -14.609375 C 2.625 -17.828125 3.21875 -20.578125 4.40625 -22.859375 C 5.601562 -25.140625 7.285156 -26.863281 9.453125 -28.03125 C 11.617188 -29.207031 14.132812 -29.796875 17 -29.796875 C 19.863281 -29.796875 22.375 -29.207031 24.53125 -28.03125 C 26.695312 -26.863281 28.378906 -25.140625 29.578125 -22.859375 C 30.785156 -20.578125 31.390625 -17.828125 31.390625 -14.609375 C 31.390625 -11.390625 30.785156 -8.644531 29.578125 -6.375 C 28.378906 -4.101562 26.695312 -2.378906 24.53125 -1.203125 C 22.375 -0.0234375 19.863281 0.5625 17 0.5625 Z M 17 -5.671875 C 21.539062 -5.671875 23.8125 -8.648438 23.8125 -14.609375 C 23.8125 -17.703125 23.226562 -19.96875 22.0625 -21.40625 C 20.894531 -22.84375 19.207031 -23.5625 17 -23.5625 C 12.457031 -23.5625 10.1875 -20.578125 10.1875 -14.609375 C 10.1875 -8.648438 12.457031 -5.671875 17 -5.671875 Z M 17 -5.671875 "/></g></g></g><g fill="#ffffff" fill-opacity="1"><g transform="translate(118.980706, 57.807667)"><g><path d="M 4.21875 0 L 4.21875 -40.984375 L 11.5625 -40.984375 L 11.5625 -18.234375 L 12.28125 -18.234375 L 20.734375 -29.25 L 28.1875 -29.25 L 28.1875 -28.640625 L 18.234375 -15.796875 L 29.296875 -0.65625 L 29.296875 0 L 21.546875 0 L 12.28125 -12.328125 L 11.5625 -12.328125 L 11.5625 0 Z M 4.21875 0 "/></g></g></g><g fill="#ffffff" fill-opacity="1"><g transform="translate(147.873403, 57.807667)"><g><path d="M 28.890625 -12.96875 L 10.09375 -12.96875 C 10.3125 -10.414062 11.035156 -8.5625 12.265625 -7.40625 C 13.503906 -6.25 15.195312 -5.671875 17.34375 -5.671875 C 19.019531 -5.671875 20.378906 -5.984375 21.421875 -6.609375 C 22.460938 -7.242188 23.300781 -8.195312 23.9375 -9.46875 L 24.5 -9.46875 L 29.375 -6.34375 C 28.414062 -4.289062 26.972656 -2.625 25.046875 -1.34375 C 23.128906 -0.0703125 20.5625 0.5625 17.34375 0.5625 C 14.320312 0.5625 11.707031 -0.0078125 9.5 -1.15625 C 7.300781 -2.3125 5.601562 -4.023438 4.40625 -6.296875 C 3.21875 -8.566406 2.625 -11.335938 2.625 -14.609375 C 2.625 -17.929688 3.25 -20.734375 4.5 -23.015625 C 5.757812 -25.296875 7.457031 -26.992188 9.59375 -28.109375 C 11.738281 -29.234375 14.144531 -29.796875 16.8125 -29.796875 C 20.945312 -29.796875 24.113281 -28.695312 26.3125 -26.5 C 28.507812 -24.3125 29.609375 -21.097656 29.609375 -16.859375 C 29.609375 -15.328125 29.554688 -14.132812 29.453125 -13.28125 Z M 22.59375 -17.703125 C 22.519531 -19.929688 22 -21.550781 21.03125 -22.5625 C 20.070312 -23.582031 18.664062 -24.09375 16.8125 -24.09375 C 13.09375 -24.09375 10.910156 -21.960938 10.265625 -17.703125 Z M 22.59375 -17.703125 "/></g></g></g></g></g></svg>